<mxfile host="Electron" agent="Mozilla/5.0 (Windows NT 10.0; Win64; x64) AppleWebKit/537.36 (KHTML, like Gecko) draw.io/24.7.17 Chrome/128.0.6613.36 Electron/32.0.1 Safari/537.36" version="24.7.17">
  <diagram name="Page-1" id="HKqTI2_JEIQyIOguPmEl">
    <mxGraphModel dx="941" dy="644" grid="1" gridSize="10" guides="1" tooltips="1" connect="1" arrows="1" fold="1" page="1" pageScale="1" pageWidth="827" pageHeight="1169" math="0" shadow="0">
      <root>
        <mxCell id="0" />
        <mxCell id="1" parent="0" />
        <mxCell id="jXXNtBzPwnB1gkb1CUNf-20" value="&lt;b&gt;NGINX&lt;/b&gt;&lt;div&gt;&lt;b&gt;Load Balancer&lt;/b&gt;&lt;/div&gt;&lt;div&gt;&lt;b&gt;HTTPS&lt;/b&gt;&lt;/div&gt;" style="outlineConnect=0;dashed=0;verticalLabelPosition=bottom;verticalAlign=top;align=center;html=1;shape=mxgraph.aws3.classic_load_balancer;fillColor=#F58534;gradientColor=none;" vertex="1" parent="1">
          <mxGeometry x="540" y="440" width="69" height="72" as="geometry" />
        </mxCell>
        <mxCell id="jXXNtBzPwnB1gkb1CUNf-21" value="&lt;b&gt;MongoDB&lt;/b&gt;" style="sketch=0;points=[[0,0,0],[0.25,0,0],[0.5,0,0],[0.75,0,0],[1,0,0],[0,1,0],[0.25,1,0],[0.5,1,0],[0.75,1,0],[1,1,0],[0,0.25,0],[0,0.5,0],[0,0.75,0],[1,0.25,0],[1,0.5,0],[1,0.75,0]];outlineConnect=0;fontColor=#232F3E;fillColor=#C925D1;strokeColor=#ffffff;dashed=0;verticalLabelPosition=bottom;verticalAlign=top;align=center;html=1;fontSize=12;fontStyle=0;aspect=fixed;shape=mxgraph.aws4.resourceIcon;resIcon=mxgraph.aws4.documentdb_with_mongodb_compatibility;" vertex="1" parent="1">
          <mxGeometry x="230.25" y="423" width="67" height="67" as="geometry" />
        </mxCell>
        <mxCell id="jXXNtBzPwnB1gkb1CUNf-23" value="&lt;b&gt;Client&lt;/b&gt;" style="outlineConnect=0;dashed=0;verticalLabelPosition=bottom;verticalAlign=top;align=center;html=1;shape=mxgraph.aws3.management_console;fillColor=#D2D3D3;gradientColor=none;" vertex="1" parent="1">
          <mxGeometry x="70" y="50" width="63" height="63" as="geometry" />
        </mxCell>
        <mxCell id="jXXNtBzPwnB1gkb1CUNf-24" value="&lt;b&gt;Client&lt;/b&gt;" style="outlineConnect=0;dashed=0;verticalLabelPosition=bottom;verticalAlign=top;align=center;html=1;shape=mxgraph.aws3.mobile_client;fillColor=#D2D3D3;gradientColor=none;" vertex="1" parent="1">
          <mxGeometry x="81.25" y="173" width="40.5" height="63" as="geometry" />
        </mxCell>
        <mxCell id="jXXNtBzPwnB1gkb1CUNf-26" value="&lt;b&gt;React&lt;/b&gt;&lt;div&gt;&lt;b&gt;Server&lt;/b&gt;&lt;/div&gt;" style="sketch=0;aspect=fixed;pointerEvents=1;shadow=0;dashed=0;html=1;strokeColor=none;labelPosition=center;verticalLabelPosition=bottom;verticalAlign=top;align=center;fillColor=#00188D;shape=mxgraph.mscae.enterprise.web_server" vertex="1" parent="1">
          <mxGeometry x="530" y="83" width="68.4" height="90" as="geometry" />
        </mxCell>
        <mxCell id="jXXNtBzPwnB1gkb1CUNf-30" value="Internet" style="ellipse;shape=cloud;whiteSpace=wrap;html=1;" vertex="1" parent="1">
          <mxGeometry x="179" y="93" width="120" height="80" as="geometry" />
        </mxCell>
        <mxCell id="jXXNtBzPwnB1gkb1CUNf-36" value="&lt;b&gt;Backend&lt;/b&gt;" style="outlineConnect=0;dashed=0;verticalLabelPosition=bottom;verticalAlign=top;align=center;html=1;shape=mxgraph.aws3.traditional_server;fillColor=#7D7C7C;gradientColor=none;" vertex="1" parent="1">
          <mxGeometry x="400" y="390" width="46.5" height="63" as="geometry" />
        </mxCell>
        <mxCell id="jXXNtBzPwnB1gkb1CUNf-37" value="&lt;b&gt;Backend Clones&lt;/b&gt;&lt;div&gt;&lt;b&gt;(Optional)&lt;/b&gt;&lt;/div&gt;" style="outlineConnect=0;dashed=0;verticalLabelPosition=bottom;verticalAlign=top;align=center;html=1;shape=mxgraph.aws3.traditional_server;fillColor=#7D7C7C;gradientColor=none;" vertex="1" parent="1">
          <mxGeometry x="400.0000000000001" y="533" width="46.5" height="63" as="geometry" />
        </mxCell>
        <mxCell id="jXXNtBzPwnB1gkb1CUNf-38" value="&lt;b&gt;WebSocket&lt;/b&gt;&lt;div&gt;&lt;b&gt;Server&lt;/b&gt;&lt;/div&gt;" style="outlineConnect=0;dashed=0;verticalLabelPosition=bottom;verticalAlign=top;align=center;html=1;shape=mxgraph.aws3.traditional_server;fillColor=#7D7C7C;gradientColor=none;" vertex="1" parent="1">
          <mxGeometry x="240.5" y="522" width="46.5" height="63" as="geometry" />
        </mxCell>
        <mxCell id="jXXNtBzPwnB1gkb1CUNf-39" value="Internet" style="ellipse;shape=cloud;whiteSpace=wrap;html=1;" vertex="1" parent="1">
          <mxGeometry x="427.75" y="250" width="250" height="84" as="geometry" />
        </mxCell>
        <mxCell id="jXXNtBzPwnB1gkb1CUNf-40" value="&lt;b&gt;NGINX&amp;nbsp;&lt;/b&gt;&lt;b style=&quot;background-color: initial;&quot;&gt;for&lt;/b&gt;&lt;div&gt;&lt;b&gt;HTTPS&lt;/b&gt;&lt;/div&gt;&lt;div&gt;&lt;b&gt;(Only for Prod)&lt;/b&gt;&lt;/div&gt;" style="outlineConnect=0;dashed=0;verticalLabelPosition=bottom;verticalAlign=top;align=center;html=1;shape=mxgraph.aws3.classic_load_balancer;fillColor=#F58534;gradientColor=none;" vertex="1" parent="1">
          <mxGeometry x="358.75" y="83" width="69" height="72" as="geometry" />
        </mxCell>
      </root>
    </mxGraphModel>
  </diagram>
</mxfile>
